<svg width="32" height="32" viewBox="0 0 32 32" fill="none" xmlns="http://www.w3.org/2000/svg">
<g clip-path="url(#clip0_16820_94537)">
<path d="M15.999 32.001C24.8356 32.001 31.999 24.8375 31.999 16.001C31.999 7.16442 24.8356 0.000976562 15.999 0.000976562C7.16247 0.000976562 -0.000976562 7.16442 -0.000976562 16.001C-0.000976562 24.8375 7.16247 32.001 15.999 32.001Z" fill="#F3BA2F"/>
<path d="M12.115 14.405L15.999 10.521L19.885 14.407L22.145 12.147L15.999 6.00098L9.85502 12.145L12.115 14.405ZM5.99902 16.001L8.25902 13.741L10.519 16.001L8.25902 18.261L5.99902 16.001ZM12.115 17.597L15.999 21.481L19.885 17.595L22.145 19.854L15.999 26.001L9.85502 19.857L9.85202 19.854L12.115 17.597ZM21.479 16.001L23.739 13.741L25.999 16.001L23.739 18.261L21.479 16.001ZM18.291 15.999H18.293V16.001L15.999 18.295L13.708 16.005L13.704 16.001L13.708 15.998L14.109 15.596L14.304 15.401L15.999 13.707L18.291 15.999Z" fill="white"/>
</g>
<defs>
<clipPath id="clip0_16820_94537">
<rect width="32" height="32" fill="white"/>
</clipPath>
</defs>
</svg>
