<svg width="92" height="116" viewBox="0 0 92 116" fill="none" xmlns="http://www.w3.org/2000/svg">
<path d="M26.2033 93.4402C47.6773 93.1579 69.1713 92.8955 90.6458 92.6334L91.374 92.6245V110.671C91.374 113.363 89.1922 115.544 86.5005 115.544H43.9234C36.7252 107.673 29.5679 99.8023 22.3697 91.9312C16.4358 92.0536 10.5427 92.1759 4.60886 92.2983C2.14151 92.3594 0.102371 90.3407 0.102371 87.8937V45.3981C8.055 38.2816 15.9872 31.165 23.9399 24.0484V6.20597C23.9399 3.02493 26.5296 0.435223 29.7106 0.435223H70.9419C77.773 8.20433 84.5837 16.0142 91.4352 23.7833C69.5349 23.7629 47.6142 23.7221 25.7139 23.7018C24.5108 24.8845 23.8175 25.5778 22.594 26.7809C22.4309 47.6412 22.3085 68.5219 22.1454 89.4231C23.7359 90.9728 24.5924 91.8496 26.1829 93.4198L26.2033 93.4402Z" fill="#1D2739"/>
</svg>
