<svg width="100" height="28" viewBox="0 0 100 28" fill="none" xmlns="http://www.w3.org/2000/svg">
<g clip-path="url(#clip0_19437_202952)">
<path d="M35.9639 16.1248C35.8928 16.6041 35.7426 17.024 35.512 17.3875C35.2813 17.7511 34.967 18.0349 34.5683 18.239C34.1695 18.4431 33.6863 18.5439 33.1195 18.5439C32.3571 18.5439 31.741 18.3711 31.2719 18.0263C30.8012 17.6807 30.4611 17.1928 30.2484 16.5634C30.035 15.9348 29.9294 15.2303 29.9294 14.4508C29.9294 13.6173 30.0443 12.8871 30.275 12.2576C30.5049 11.6282 30.8551 11.1372 31.325 10.7815C31.795 10.4273 32.3837 10.2498 33.0929 10.2498C33.9256 10.2498 34.573 10.4765 35.0335 10.9285C35.494 11.3804 35.7591 11.9433 35.831 12.6165H40.0047C39.9335 11.4296 39.5965 10.3835 38.9945 9.48042C38.3916 8.57657 37.5855 7.87132 36.5746 7.36701C35.5644 6.86192 34.4041 6.60938 33.0929 6.60938C31.8872 6.60938 30.8192 6.81344 29.8895 7.2208C28.9591 7.62894 28.1788 8.1872 27.5502 8.89636C26.9207 9.60474 26.4469 10.4155 26.1279 11.3288C25.8089 12.2397 25.6494 13.192 25.6494 14.1842V14.6893C25.6494 15.6463 25.8042 16.5728 26.1154 17.4673C26.4243 18.3625 26.8903 19.164 27.5111 19.8731C28.1311 20.5815 28.902 21.1491 29.8231 21.5745C30.7441 21.9998 31.8442 22.2125 33.1195 22.2125C34.3947 22.2125 35.6011 21.9552 36.6285 21.4416C37.6559 20.9279 38.48 20.214 39.1008 19.3016C39.7208 18.3891 40.0578 17.3305 40.111 16.1248H35.9639Z" fill="white"/>
<path d="M55.2644 14.0794C55.2644 12.7502 54.9798 11.5235 54.4129 10.3976C53.8461 9.27244 53.0259 8.35999 51.9539 7.65943C50.8812 6.96044 49.5653 6.60938 48.0062 6.60938C46.8186 6.60938 45.7599 6.81814 44.8295 7.23409C43.8991 7.65083 43.1195 8.21378 42.4901 8.92294C41.8607 9.63132 41.383 10.4335 41.0546 11.3288C40.7262 12.224 40.562 13.1591 40.562 14.1334V14.665C40.562 15.6041 40.7262 16.522 41.0546 17.4165C41.383 18.3109 41.8654 19.1217 42.5034 19.8489C43.1414 20.5752 43.935 21.1507 44.8827 21.5768C45.8303 22.0022 46.9257 22.2148 48.1665 22.2148C49.4074 22.2148 50.4699 21.9975 51.4098 21.5635C52.3488 21.1288 53.1283 20.5307 53.7491 19.7683C54.3692 19.0068 54.7859 18.1381 54.9986 17.1631H51.0915C50.914 17.6065 50.5771 17.9786 50.0806 18.2796C49.5841 18.5807 48.9468 18.7316 48.1673 18.7316C47.3159 18.7316 46.6255 18.5549 46.093 18.2007C45.5621 17.8465 45.1719 17.3453 44.9233 16.6987C44.7849 16.339 44.6856 15.945 44.6246 15.5157H55.2652V14.0802L55.2644 14.0794ZM44.6559 13.0958C44.7224 12.7111 44.8193 12.3616 44.9499 12.0458C45.2157 11.3984 45.6051 10.9113 46.1188 10.5829C46.6325 10.2545 47.2619 10.0911 48.007 10.0911C48.7522 10.0911 49.3401 10.2545 49.828 10.5829C50.3159 10.9113 50.6787 11.3804 50.9187 11.9918C51.047 12.3194 51.1408 12.6877 51.201 13.095H44.6575L44.6559 13.0958Z" fill="white"/>
<path d="M89.7351 14.0794C89.7351 12.7502 89.4505 11.5235 88.8836 10.3976C88.3168 9.27244 87.4966 8.35999 86.4246 7.65943C85.3519 6.96044 84.036 6.60938 82.477 6.60938C81.2893 6.60938 80.2306 6.81814 79.3002 7.23409C78.3698 7.65083 77.5902 8.21378 76.9608 8.92294C76.3314 9.63132 75.8537 10.4335 75.5253 11.3288C75.1969 12.2232 75.0327 13.1591 75.0327 14.1334V14.665C75.0327 15.6041 75.1961 16.522 75.5253 17.4165C75.8529 18.3109 76.3361 19.1217 76.9741 19.8489C77.6121 20.5752 78.4049 21.1507 79.3534 21.5768C80.301 22.0022 81.3964 22.2148 82.6372 22.2148C83.8781 22.2148 84.9406 21.9975 85.8805 21.5635C86.8195 21.1288 87.599 20.5307 88.2198 19.7683C88.8399 19.0068 89.2566 18.1381 89.4693 17.1631H85.5615C85.3847 17.6065 85.0478 17.9786 84.5513 18.2796C84.0548 18.5807 83.4176 18.7316 82.638 18.7316C81.7866 18.7316 81.0962 18.5549 80.5637 18.2007C80.0328 17.8465 79.6427 17.3453 79.394 16.6987C79.2556 16.339 79.1563 15.945 79.0953 15.5157H89.7359V14.0802L89.7351 14.0794ZM79.1266 13.0958C79.1931 12.7111 79.29 12.3616 79.4198 12.0458C79.6857 11.3984 80.075 10.9113 80.5887 10.5829C81.1024 10.2553 81.7318 10.0911 82.4762 10.0911C83.2205 10.0911 83.8093 10.2545 84.2972 10.5829C84.7851 10.9105 85.1478 11.3804 85.3879 11.9918C85.5161 12.3194 85.6099 12.6877 85.6694 13.095H79.1266V13.0958Z" fill="white"/>
<path d="M99.4419 6.92969C97.7757 6.92969 96.5052 7.48716 95.6272 8.60446C94.9657 9.44654 94.5536 10.5599 94.391 11.9446V7.11577H90.9883V21.6837H95.2683V14.2676C95.2683 13.0799 95.5873 12.1769 96.2253 11.556C96.8633 10.936 97.7671 10.6256 98.9368 10.6256H100V6.92969H99.4419Z" fill="white"/>
<path d="M65.4672 18.3061L64.9387 22.0716C64.2991 22.221 63.622 22.2952 62.9066 22.2952C61.6657 22.2952 60.6008 22.0826 59.7126 21.6572C59.6368 21.6213 59.5633 21.5837 59.4906 21.5454C58.704 21.1334 58.0668 20.5947 57.5765 19.9293C57.0409 19.2029 56.6719 18.3921 56.4694 17.4969C56.4694 17.4969 56.2864 16.6923 56.2856 15.7869C56.2856 14.9237 56.815 10.7806 57.6672 4.82031H61.7846C60.8799 10.822 60.317 14.9777 60.3076 15.7306C60.3006 16.2615 60.4374 16.7791 60.4374 16.7791C60.6196 17.4695 60.9276 17.8346 61.0277 17.9472C61.1372 18.07 61.2607 18.1818 61.396 18.2811C61.8784 18.6353 62.5438 18.812 63.3952 18.812C64.1748 18.812 64.8339 18.6619 65.3726 18.3601C65.4047 18.3421 65.4359 18.3233 65.4672 18.3053V18.3061Z" fill="white"/>
<path d="M75.1161 18.3061L74.5876 22.0716C73.948 22.221 73.2701 22.2952 72.5547 22.2952C71.3139 22.2952 70.2497 22.0826 69.3607 21.6572C69.2857 21.6213 69.2122 21.5837 69.1395 21.5454C68.3529 21.1334 67.7149 20.5947 67.2247 19.9293C66.6891 19.2029 66.3208 18.3921 66.1183 17.4969C66.1183 17.4969 65.9346 16.6923 65.9346 15.7869C65.9346 14.8815 66.4639 10.7806 67.3161 4.82031H71.4327C70.5289 10.822 69.9651 14.9777 69.9565 15.7306C69.9495 16.2615 70.0863 16.7791 70.0863 16.7791C70.2677 17.4695 70.5758 17.8346 70.6766 17.9472C70.7861 18.07 70.9096 18.1818 71.0449 18.2811C71.5273 18.6353 72.1927 18.812 73.0442 18.812C73.8237 18.812 74.4828 18.6619 75.0207 18.3601C75.0528 18.3421 75.0849 18.3233 75.1154 18.3053L75.1161 18.3061Z" fill="white"/>
</g>
<g clip-path="url(#clip1_19437_202952)">
<path d="M17.7676 25.3766V25.3774C17.2916 26.0669 16.6991 26.6081 16.0065 26.9855C15.3029 27.3699 14.535 27.564 13.7235 27.564C13.5301 27.564 13.3337 27.5524 13.1388 27.5299H13.1357H13.1326C11.7488 27.3412 10.3775 26.6788 9.05662 25.5622C8.03628 24.6995 7.05321 23.5743 6.13148 22.2146L5.6912 22.7566C5.49163 23.002 5.19656 23.1433 4.88284 23.1433C4.39441 23.1433 3.97432 22.8125 3.86095 22.3396L3.28555 19.9316C3.2475 19.7725 3.13335 19.642 2.98115 19.583L0.670236 18.6916C0.295955 18.5471 0.0404805 18.2086 0.00476065 17.8087C-0.0309592 17.4095 0.159288 17.0314 0.500955 16.8217L2.61386 15.5303C2.75286 15.4449 2.84216 15.2966 2.8507 15.1335L2.98426 12.6611C2.99979 12.3808 3.1217 12.1245 3.32748 11.9397C3.52238 11.7658 3.7732 11.6695 4.03411 11.6695C4.29502 11.6695 4.5171 11.7565 4.71046 11.9219L6.59118 13.5324C6.68126 13.6092 6.79618 13.652 6.91421 13.652C6.95692 13.652 6.99963 13.6465 7.04156 13.6349L9.43479 12.9981C9.52564 12.9741 9.61727 12.9616 9.7089 12.9616C10.056 12.9616 10.3798 13.1371 10.5763 13.4299C10.7727 13.7249 10.8077 14.0821 10.671 14.4106L9.72132 16.6975C9.65843 16.8489 9.67396 17.0205 9.76326 17.1579L11.1074 19.2374C11.3194 19.5644 11.3349 19.9643 11.1486 20.3059C10.9645 20.6437 10.6135 20.8534 10.2323 20.8534C10.2035 20.8534 10.174 20.8518 10.1453 20.8495L9.54894 20.8021C9.82538 21.1943 10.1127 21.5647 10.407 21.9087C10.6912 22.2402 11.2705 22.8715 11.9592 23.3786C12.6503 23.8872 13.2708 24.145 13.8043 24.145C13.9634 24.145 14.1172 24.121 14.2608 24.0744C14.6421 23.9424 14.9853 23.6123 15.2812 23.0944C16.0989 21.5856 16.352 19.3772 16.0321 16.5305C15.7766 14.4417 15.2113 12.2783 14.3967 10.2741C13.9704 9.22503 13.4812 8.23341 12.9415 7.32644C12.3755 6.37443 11.7535 5.51405 11.0927 4.76937C10.5879 4.19785 10.0086 3.67992 9.45964 3.31029C8.76621 2.84361 8.12946 2.60599 7.56649 2.60599C7.00351 2.60599 6.53683 2.83817 6.12838 3.31573C5.62442 3.94238 5.26178 4.7849 5.05057 5.82155C4.88673 6.62602 4.80907 7.5625 4.81218 8.68535C4.81529 8.99362 4.70036 9.28559 4.4876 9.51001C4.27405 9.73442 3.98674 9.8641 3.67769 9.87575C3.66293 9.87575 3.6474 9.87575 3.63187 9.87575C3.32593 9.87575 3.03628 9.75927 2.81575 9.5465C2.59445 9.33374 2.46632 9.04798 2.45467 8.74048C2.40575 7.44913 2.4803 6.30066 2.68142 5.22984C2.80333 4.55194 2.99047 3.90899 3.23663 3.32039C3.50375 2.68209 3.8361 2.11989 4.22436 1.6501C4.65144 1.13372 5.14375 0.731479 5.68887 0.455039C6.28368 0.152974 6.94139 0 7.64569 0C7.82119 0 8.00134 0.0100947 8.18227 0.0287311H8.18537H8.18848C9.12418 0.145985 10.018 0.482217 10.9187 1.05529C11.6277 1.50644 12.3436 2.1098 13.1054 2.90029L13.1069 2.90185L13.1085 2.9034C13.9168 3.76456 14.6778 4.76005 15.372 5.86271C16.0329 6.91256 16.6323 8.0587 17.1557 9.27162C18.1605 11.6027 18.8586 14.1194 19.1739 16.5499V16.5522C19.6359 20.3626 19.1622 23.3305 17.766 25.375L17.7676 25.3766Z" fill="white"/>
</g>
<defs>
<clipPath id="clip0_19437_202952">
<rect width="74.3509" height="17.4749" fill="white" transform="translate(25.6494 4.82031)"/>
</clipPath>
<clipPath id="clip1_19437_202952">
<rect width="19.3469" height="27.5633" fill="white"/>
</clipPath>
</defs>
</svg>
