<svg width="138" height="37" viewBox="0 0 138 37" fill="none" xmlns="http://www.w3.org/2000/svg">
<path opacity="0.99" fill-rule="evenodd" clip-rule="evenodd" d="M0 19.5606C0 18.8833 0 18.206 0 17.5287C0.369689 12.5536 2.38749 8.38523 6.0534 5.02345C10.2257 1.43924 15.0604 -0.0149741 20.5576 0.6608C25.7863 1.52042 29.9068 4.10514 32.9191 8.41496C35.6428 12.5516 36.5718 17.0636 35.7061 21.9511C34.8478 26.0901 32.825 29.5314 29.6377 32.2751C25.5103 35.6418 20.7855 36.9963 15.4631 36.3389C10.5982 35.5704 6.65745 33.2647 3.64103 29.4214C1.44791 26.5022 0.234233 23.2153 0 19.5606ZM17.1113 2.25944C22.2032 2.10321 26.5035 3.84628 30.0123 7.48864C33.0632 10.877 34.5017 14.8612 34.3276 19.4411C33.9374 24.5244 31.7249 28.6032 27.6898 31.6774C23.7361 34.48 19.3708 35.4162 14.5941 34.4863C9.88259 33.3819 6.29149 30.7673 3.82083 26.6425C1.62961 22.6893 1.11018 18.5258 2.26253 14.1521C3.54064 9.88048 6.10284 6.61847 9.94915 4.36606C12.1788 3.12191 14.5662 2.4197 17.1113 2.25944Z" fill="#3A66FF"/>
<path opacity="0.989" fill-rule="evenodd" clip-rule="evenodd" d="M17.4572 3.593C22.7954 3.56772 27.0558 5.66938 30.2382 9.89792C32.8648 13.7492 33.614 17.9426 32.4858 22.4779C31.181 26.896 28.4591 30.1181 24.3197 32.1444C20.6483 33.7754 16.9023 33.9645 13.0819 32.7122C8.641 31.0729 5.56935 28.05 3.86697 23.6433C2.53896 19.7803 2.70878 15.9854 4.37642 12.2585C6.21551 8.47256 9.11734 5.85796 13.0819 4.41473C14.5063 3.93741 15.9647 3.66349 17.4572 3.593ZM17.2773 5.14682C15.5979 5.25421 13.9897 5.65761 12.4526 6.35701C9.00169 8.02393 6.62927 10.6584 5.33537 14.2606C4.24624 17.6133 4.41603 20.9003 5.84481 24.1214C7.75658 28.0412 10.8382 30.5264 15.0897 31.5767C18.6687 32.3118 22.0151 31.7339 25.1288 29.8436C28.1828 27.8724 30.1456 25.1183 31.0174 21.5815C31.8606 17.578 31.1016 13.9126 28.7398 10.5852C25.8521 6.85931 22.0313 5.04651 17.2773 5.14682Z" fill="#3A66FF"/>
<path opacity="0.996" fill-rule="evenodd" clip-rule="evenodd" d="M6.81833 17.2188C8.32503 17.5083 9.83337 17.7921 11.3434 18.0704C11.3712 18.082 11.3912 18.1019 11.4033 18.1301C11.3329 18.5102 11.293 18.8937 11.2835 19.2806C13.501 19.2806 15.7186 19.2806 17.9362 19.2806C17.9362 20.8244 17.9362 22.3683 17.9362 23.9121C16.3579 23.9071 14.7796 23.9121 13.2014 23.9271C14.7586 25.4507 16.6265 26.0882 18.8053 25.8395C21.2845 25.4039 23.0426 24.0443 24.0795 21.7607C25.5123 22.3406 26.9407 22.9283 28.3648 23.5237C27.1339 26.3896 25.0861 28.4464 22.2215 29.6941C19.2865 30.8472 16.3597 30.8275 13.4411 29.6344C10.1626 28.1381 8.01993 25.663 7.01312 22.2089C6.59193 20.5594 6.52699 18.896 6.81833 17.2188Z" fill="#3A66FF"/>
<path d="M51.3593 25.88C50.0393 25.88 48.906 25.6533 47.9593 25.2C47.0126 24.7333 46.2393 24.1267 45.6393 23.38C45.0393 22.62 44.5926 21.8067 44.2993 20.94C44.0193 20.06 43.8793 19.2067 43.8793 18.38V17.94C43.8793 17.0333 44.026 16.14 44.3193 15.26C44.6126 14.3667 45.0593 13.56 45.6593 12.84C46.2726 12.12 47.0393 11.5467 47.9593 11.12C48.8926 10.68 49.9926 10.46 51.2593 10.46C52.5793 10.46 53.746 10.7067 54.7593 11.2C55.7726 11.6933 56.5793 12.38 57.1793 13.26C57.7926 14.1267 58.1526 15.1467 58.2593 16.32H54.9593C54.866 15.7333 54.6526 15.2333 54.3193 14.82C53.986 14.4067 53.5526 14.0867 53.0193 13.86C52.4993 13.6333 51.9126 13.52 51.2593 13.52C50.606 13.52 50.026 13.6333 49.5193 13.86C49.0126 14.0867 48.586 14.4067 48.2393 14.82C47.906 15.2333 47.646 15.7267 47.4593 16.3C47.286 16.86 47.1993 17.4867 47.1993 18.18C47.1993 18.86 47.286 19.4867 47.4593 20.06C47.646 20.62 47.9126 21.1133 48.2593 21.54C48.6193 21.9533 49.0593 22.2733 49.5793 22.5C50.0993 22.7133 50.6926 22.82 51.3593 22.82C52.3726 22.82 53.226 22.5733 53.9193 22.08C54.626 21.5867 55.0526 20.9067 55.1993 20.04H58.4793C58.3593 21.1067 57.9993 22.0867 57.3993 22.98C56.8126 23.86 56.006 24.5667 54.9793 25.1C53.966 25.62 52.7593 25.88 51.3593 25.88ZM60.0754 25.5V14.54H62.6154V19.24H62.5554C62.5554 17.6933 62.882 16.5 63.5354 15.66C64.202 14.82 65.162 14.4 66.4154 14.4H66.8354V17.16H66.0354C65.1554 17.16 64.4754 17.4 63.9954 17.88C63.5154 18.3467 63.2754 19.0267 63.2754 19.92V25.5H60.0754ZM68.2859 29.84V27.12H70.5659C70.9125 27.12 71.2059 27.0733 71.4459 26.98C71.6859 26.9 71.8792 26.76 72.0259 26.56C72.1725 26.36 72.2925 26.0867 72.3859 25.74L75.0859 14.54H78.1259L75.0659 26.38C74.8525 27.2333 74.5525 27.9133 74.1659 28.42C73.7925 28.9267 73.2859 29.2867 72.6459 29.5C72.0192 29.7267 71.2192 29.84 70.2459 29.84H68.2859ZM71.7259 25.26V22.76H74.0459V25.26H71.7259ZM70.4059 25.26L67.0459 14.54H70.2659L73.4459 25.26H70.4059ZM79.4121 29.5V14.54H81.9521V19.28L81.6121 19.26C81.6654 18.1667 81.8921 17.2467 82.2921 16.5C82.6921 15.74 83.2321 15.1733 83.9121 14.8C84.5921 14.4133 85.3588 14.22 86.2121 14.22C86.9721 14.22 87.6588 14.36 88.2721 14.64C88.8988 14.92 89.4321 15.3133 89.8721 15.82C90.3254 16.3133 90.6654 16.9 90.8921 17.58C91.1321 18.2467 91.2521 18.98 91.2521 19.78V20.24C91.2521 21.0267 91.1388 21.7667 90.9121 22.46C90.6854 23.14 90.3521 23.7333 89.9121 24.24C89.4854 24.7467 88.9588 25.1467 88.3321 25.44C87.7188 25.72 87.0121 25.86 86.2121 25.86C85.3854 25.86 84.6388 25.6933 83.9721 25.36C83.3188 25.0133 82.7921 24.4933 82.3921 23.8C81.9921 23.0933 81.7721 22.2 81.7321 21.12L82.6121 22.32V29.5H79.4121ZM85.3121 23.18C85.8588 23.18 86.3321 23.0467 86.7321 22.78C87.1454 22.5133 87.4654 22.14 87.6921 21.66C87.9188 21.18 88.0321 20.6267 88.0321 20C88.0321 19.3733 87.9188 18.8267 87.6921 18.36C87.4654 17.8933 87.1521 17.5333 86.7521 17.28C86.3521 17.0133 85.8721 16.88 85.3121 16.88C84.8321 16.88 84.3788 16.9933 83.9521 17.22C83.5254 17.4467 83.1788 17.7733 82.9121 18.2C82.6588 18.6133 82.5321 19.12 82.5321 19.72V20.46C82.5321 21.0333 82.6654 21.5267 82.9321 21.94C83.2121 22.34 83.5654 22.6467 83.9921 22.86C84.4188 23.0733 84.8588 23.18 85.3121 23.18ZM98.0546 25.64C96.9479 25.64 96.0546 25.5067 95.3746 25.24C94.6946 24.96 94.1946 24.5 93.8746 23.86C93.5679 23.2067 93.4146 22.3267 93.4146 21.22V11.58H96.3946V21.34C96.3946 21.86 96.5279 22.26 96.7946 22.54C97.0746 22.8067 97.4679 22.94 97.9746 22.94H99.5946V25.64H98.0546ZM91.7546 16.88V14.54H99.5946V16.88H91.7546ZM101.346 29.5V14.54H103.886V19.28L103.546 19.26C103.6 18.1667 103.826 17.2467 104.226 16.5C104.626 15.74 105.166 15.1733 105.846 14.8C106.526 14.4133 107.293 14.22 108.146 14.22C108.906 14.22 109.593 14.36 110.206 14.64C110.833 14.92 111.366 15.3133 111.806 15.82C112.26 16.3133 112.6 16.9 112.826 17.58C113.066 18.2467 113.186 18.98 113.186 19.78V20.24C113.186 21.0267 113.073 21.7667 112.846 22.46C112.62 23.14 112.286 23.7333 111.846 24.24C111.42 24.7467 110.893 25.1467 110.266 25.44C109.653 25.72 108.946 25.86 108.146 25.86C107.32 25.86 106.573 25.6933 105.906 25.36C105.253 25.0133 104.726 24.4933 104.326 23.8C103.926 23.0933 103.706 22.2 103.666 21.12L104.546 22.32V29.5H101.346ZM107.246 23.18C107.793 23.18 108.266 23.0467 108.666 22.78C109.08 22.5133 109.4 22.14 109.626 21.66C109.853 21.18 109.966 20.6267 109.966 20C109.966 19.3733 109.853 18.8267 109.626 18.36C109.4 17.8933 109.086 17.5333 108.686 17.28C108.286 17.0133 107.806 16.88 107.246 16.88C106.766 16.88 106.313 16.9933 105.886 17.22C105.46 17.4467 105.113 17.7733 104.846 18.2C104.593 18.6133 104.466 19.12 104.466 19.72V20.46C104.466 21.0333 104.6 21.5267 104.866 21.94C105.146 22.34 105.5 22.6467 105.926 22.86C106.353 23.0733 106.793 23.18 107.246 23.18ZM121.629 25.5V22.26H121.089V18.74C121.089 18.18 120.956 17.76 120.689 17.48C120.422 17.2 119.996 17.06 119.409 17.06C119.116 17.06 118.729 17.0667 118.249 17.08C117.769 17.0933 117.276 17.1133 116.769 17.14C116.262 17.1667 115.802 17.1933 115.389 17.22V14.52C115.696 14.4933 116.056 14.4667 116.469 14.44C116.882 14.4133 117.309 14.3933 117.749 14.38C118.189 14.3667 118.602 14.36 118.989 14.36C120.109 14.36 121.049 14.52 121.809 14.84C122.582 15.16 123.169 15.6467 123.569 16.3C123.969 16.94 124.169 17.7667 124.169 18.78V25.5H121.629ZM118.129 25.78C117.342 25.78 116.649 25.64 116.049 25.36C115.462 25.08 115.002 24.68 114.669 24.16C114.336 23.6267 114.169 22.9933 114.169 22.26C114.169 21.46 114.376 20.8067 114.789 20.3C115.202 19.78 115.782 19.4 116.529 19.16C117.276 18.9067 118.136 18.78 119.109 18.78H121.449V20.56H119.089C118.529 20.56 118.096 20.7 117.789 20.98C117.496 21.2467 117.349 21.6133 117.349 22.08C117.349 22.52 117.496 22.88 117.789 23.16C118.096 23.4267 118.529 23.56 119.089 23.56C119.449 23.56 119.769 23.5 120.049 23.38C120.342 23.2467 120.582 23.0267 120.769 22.72C120.956 22.4133 121.062 21.9867 121.089 21.44L121.849 22.24C121.782 23 121.596 23.64 121.289 24.16C120.996 24.68 120.582 25.08 120.049 25.36C119.529 25.64 118.889 25.78 118.129 25.78ZM126.169 29.84V27.12H128.449C128.795 27.12 129.089 27.0733 129.329 26.98C129.569 26.9 129.762 26.76 129.909 26.56C130.055 26.36 130.175 26.0867 130.269 25.74L132.969 14.54H136.009L132.949 26.38C132.735 27.2333 132.435 27.9133 132.049 28.42C131.675 28.9267 131.169 29.2867 130.529 29.5C129.902 29.7267 129.102 29.84 128.129 29.84H126.169ZM129.609 25.26V22.76H131.929V25.26H129.609ZM128.289 25.26L124.929 14.54H128.149L131.329 25.26H128.289Z" fill="#3A66FF"/>
</svg>
