<svg width="140" height="198" viewBox="0 0 140 198" fill="none" xmlns="http://www.w3.org/2000/svg">
<g clip-path="url(#clip0_19392_192011)">
<path d="M128.153 182.284V182.29C124.733 187.243 120.476 191.131 115.5 193.842C110.445 196.603 104.928 197.998 99.0977 197.998C97.7086 197.998 96.2971 197.914 94.8968 197.752H94.8745H94.8522C84.9104 196.397 75.058 191.639 65.5681 183.617C58.2374 177.42 51.1744 169.338 44.5522 159.57L41.3889 163.464C39.9551 165.226 37.8351 166.242 35.5812 166.242C32.072 166.242 29.0538 163.865 28.2393 160.468L24.1053 143.171C23.8319 142.027 23.0118 141.09 21.9183 140.666L5.31529 134.262C2.62623 133.225 0.790746 130.793 0.534113 127.92C0.277481 125.053 1.64433 122.337 4.09907 120.83L19.2794 111.554C20.2781 110.94 20.9197 109.875 20.981 108.704L21.9406 90.943C22.0522 88.9293 22.9281 87.0885 24.4065 85.761C25.8068 84.5115 27.6088 83.8198 29.4834 83.8198C31.3579 83.8198 32.9535 84.4445 34.3427 85.6327L47.8549 97.2016C48.5021 97.7539 49.3278 98.0606 50.1758 98.0606C50.4826 98.0606 50.7895 98.0216 51.0907 97.9379L68.2851 93.3639C68.9378 93.191 69.5962 93.1017 70.2545 93.1017C72.7483 93.1017 75.0747 94.3624 76.4862 96.4653C77.8977 98.585 78.1487 101.151 77.1668 103.51L70.3438 119.938C69.8919 121.026 70.0034 122.258 70.645 123.246L80.3022 138.184C81.8253 140.532 81.9369 143.405 80.5979 145.859C79.2757 148.286 76.754 149.792 74.0147 149.792C73.8083 149.792 73.5963 149.781 73.3899 149.764L69.1052 149.424C71.0913 152.241 73.1556 154.901 75.27 157.373C77.3119 159.754 81.4738 164.289 86.4223 167.932C91.3876 171.585 95.8452 173.437 99.678 173.437C100.822 173.437 101.926 173.265 102.958 172.93C105.698 171.982 108.164 169.611 110.289 165.89C116.164 155.052 117.983 139.188 115.684 118.739C113.849 103.734 109.787 88.193 103.935 73.7959C100.872 66.2599 97.3571 59.1367 93.4797 52.6215C89.4127 45.7828 84.9439 39.6022 80.1962 34.2528C76.5699 30.1474 72.408 26.4268 68.4636 23.7716C63.4816 20.4192 58.9069 18.7123 54.8621 18.7123C50.8174 18.7123 47.4644 20.3801 44.5299 23.8106C40.9091 28.3122 38.3037 34.3644 36.7863 41.8111C35.6091 47.5901 35.0512 54.3172 35.0735 62.3832C35.0958 64.5977 34.2701 66.695 32.7415 68.3071C31.2073 69.9192 29.1431 70.8507 26.9226 70.9344C26.8166 70.9344 26.7051 70.9344 26.5935 70.9344C24.3954 70.9344 22.3144 70.0977 20.73 68.5693C19.14 67.0409 18.2194 64.9881 18.1358 62.7792C17.7843 53.5028 18.3199 45.2528 19.7648 37.5606C20.6407 32.691 21.9852 28.0723 23.7538 23.8441C25.6729 19.2589 28.0607 15.2204 30.8502 11.8456C33.9187 8.1362 37.4557 5.24675 41.3722 3.26095C45.6457 1.09107 50.371 -0.0078125 55.4312 -0.0078125C56.692 -0.0078125 57.9863 0.0647027 59.2862 0.198577H59.3085H59.3309C66.0535 1.04087 72.4749 3.45618 78.9465 7.57282C84.0401 10.8137 89.1839 15.1479 94.6569 20.8264L94.668 20.8375L94.6792 20.8487C100.487 27.0348 105.954 34.1859 110.942 42.1068C115.69 49.6484 119.997 57.8816 123.757 66.5946C130.976 83.3401 135.991 101.419 138.257 118.878V118.895C141.576 146.267 138.173 167.586 128.142 182.273L128.153 182.284Z" fill="#667185"/>
</g>
<defs>
<clipPath id="clip0_19392_192011">
<rect width="139" height="198" fill="white" transform="translate(0.5)"/>
</clipPath>
</defs>
</svg>
