<svg width="28" height="29" viewBox="0 0 28 29" fill="none" xmlns="http://www.w3.org/2000/svg">
<path d="M11.0835 16.5419C11.0835 17.6736 11.9585 18.5836 13.0318 18.5836H15.2251C16.1585 18.5836 16.9168 17.7903 16.9168 16.7986C16.9168 15.7369 16.4502 15.3519 15.7618 15.1069L12.2502 13.8819C11.5618 13.6369 11.0952 13.2636 11.0952 12.1903C11.0952 11.2103 11.8535 10.4053 12.7868 10.4053H14.9802C16.0535 10.4053 16.9285 11.3153 16.9285 12.4469" stroke="#3A66FF" stroke-width="1.5" stroke-linecap="round" stroke-linejoin="round"/>
<path d="M14 9.25V19.75" stroke="#3A66FF" stroke-width="1.5" stroke-linecap="round" stroke-linejoin="round"/>
<path d="M25.6668 14.4997C25.6668 20.9397 20.4402 26.1663 14.0002 26.1663C7.56016 26.1663 2.3335 20.9397 2.3335 14.4997C2.3335 8.05967 7.56016 2.83301 14.0002 2.83301" stroke="#3A66FF" stroke-width="1.5" stroke-linecap="round" stroke-linejoin="round"/>
<path d="M19.8335 4V8.66667H24.5002" stroke="#3A66FF" stroke-width="1.5" stroke-linecap="round" stroke-linejoin="round"/>
<path d="M25.6668 2.83301L19.8335 8.66634" stroke="#3A66FF" stroke-width="1.5" stroke-linecap="round" stroke-linejoin="round"/>
</svg>
