<svg width="28" height="29" viewBox="0 0 28 29" fill="none" xmlns="http://www.w3.org/2000/svg">
<path d="M11.0833 16.5419C11.0833 17.6736 11.9583 18.5836 13.0316 18.5836H15.2249C16.1582 18.5836 16.9166 17.7903 16.9166 16.7986C16.9166 15.7369 16.4499 15.3519 15.7616 15.1069L12.2499 13.8819C11.5616 13.6369 11.0949 13.2636 11.0949 12.1903C11.0949 11.2103 11.8532 10.4053 12.7866 10.4053H14.9799C16.0532 10.4053 16.9283 11.3153 16.9283 12.4469" stroke="white" stroke-width="1.5" stroke-linecap="round" stroke-linejoin="round"/>
<path d="M14 9.25V19.75" stroke="white" stroke-width="1.5" stroke-linecap="round" stroke-linejoin="round"/>
<path d="M25.6666 14.4997C25.6666 20.9397 20.4399 26.1663 13.9999 26.1663C7.55992 26.1663 2.33325 20.9397 2.33325 14.4997C2.33325 8.05967 7.55992 2.83301 13.9999 2.83301" stroke="white" stroke-width="1.5" stroke-linecap="round" stroke-linejoin="round"/>
<path d="M25.6667 7.49967V2.83301H21" stroke="white" stroke-width="1.5" stroke-linecap="round" stroke-linejoin="round"/>
<path d="M19.8333 8.66634L25.6666 2.83301" stroke="white" stroke-width="1.5" stroke-linecap="round" stroke-linejoin="round"/>
</svg>
