<svg width="140" height="33" viewBox="0 0 140 33" fill="none" xmlns="http://www.w3.org/2000/svg">
<path d="M30.137 7.90702L24.4914 2.26147C23.2905 1.06051 21.6892 0.398438 19.9904 0.398438H12.0096C10.3108 0.398438 8.70954 1.06051 7.50858 2.26147L1.86303 7.90702C0.662069 9.10798 0 10.7093 0 12.4081V20.3888C0 22.0876 0.662069 23.6889 1.86303 24.8899L7.50345 30.5303C8.70441 31.7312 10.3057 32.3933 12.0045 32.3933H19.9852C21.684 32.3933 23.2853 31.7312 24.4863 30.5303L30.1267 24.8899C31.3328 23.6889 31.9897 22.0876 31.9897 20.3888V12.4081C31.9897 10.7093 31.3277 9.10798 30.1267 7.90702H30.137ZM12.1533 22.1287C15.6638 22.0825 19.1743 22.0414 22.6848 21.9952V24.9104C22.6848 25.3466 22.3307 25.7008 21.8945 25.7008H15.012C13.847 24.4279 12.6922 23.1603 11.5272 21.8875C10.5674 21.908 9.61283 21.9234 8.65822 21.949C8.2579 21.9593 7.92943 21.636 7.92943 21.2356V14.3686C9.21764 13.219 10.4956 12.0693 11.7838 10.9197V8.03533C11.7838 7.52209 12.1995 7.10124 12.7179 7.10124H19.3848C20.4882 8.35866 21.5917 9.61608 22.7002 10.8735C19.1589 10.8735 15.6176 10.8632 12.0815 10.8632C11.8864 11.0531 11.7735 11.166 11.5785 11.3611C11.5528 14.733 11.5323 18.1049 11.5067 21.482C11.7633 21.7335 11.9018 21.8721 12.1585 22.1287H12.1533Z" fill="#2B79FF"/>
<path d="M47.361 20.43C46.5501 20.9997 45.5596 21.2871 44.3894 21.2871C43.6196 21.2871 42.9318 21.1588 42.3314 20.9074C41.7309 20.6507 41.2228 20.2812 40.8173 19.7988C40.4067 19.3112 40.0988 18.7415 39.8935 18.0897C39.6831 17.4328 39.5804 16.7143 39.5804 15.929C39.5804 15.1438 39.6831 14.3996 39.8935 13.7426C40.1039 13.0857 40.4016 12.5211 40.7968 12.0438C41.192 11.5665 41.6796 11.2021 42.2646 10.9455C42.8497 10.6889 43.5221 10.5657 44.2765 10.5657C45.031 10.5657 45.7084 10.694 46.3089 10.9455C46.9094 11.2021 47.4072 11.5665 47.8024 12.0438C48.1976 12.5211 48.444 13.1011 48.5517 13.7786H52.365C52.2419 12.439 51.8313 11.2586 51.1282 10.2424C50.425 9.2262 49.491 8.43069 48.3208 7.861C47.1506 7.29132 45.8008 7.00391 44.2765 7.00391C42.7522 7.00391 41.5461 7.25539 40.4735 7.75322C39.4008 8.25619 38.5129 8.92339 37.8047 9.75483C37.0964 10.5863 36.5729 11.5152 36.2342 12.5417C35.8954 13.5681 35.7261 14.6049 35.7261 15.6519V16.16C35.7261 17.1146 35.8903 18.1 36.2239 19.1213C36.5575 20.1375 37.0707 21.0767 37.7739 21.9441C38.477 22.8063 39.3752 23.5094 40.4683 24.0483C41.5615 24.5872 42.8703 24.8592 44.3997 24.8592C46.0164 24.8592 47.4175 24.5513 48.5979 23.9354C49.7784 23.3195 50.7073 22.4984 51.395 21.4719C52.0828 20.4454 52.4934 19.3163 52.6319 18.0846H48.8391C48.6698 19.0854 48.1822 19.8706 47.3713 20.4403L47.361 20.43Z" fill="#2B79FF"/>
<path d="M58.0159 13.0091C57.4411 13.743 57.0819 14.713 56.9433 15.9191V11.7157H53.9819V24.3874H57.7029V17.9361C57.7029 16.9045 57.98 16.1193 58.5343 15.5804C59.0886 15.0415 59.8738 14.7695 60.89 14.7695H61.8139V11.5566H61.3263C59.879 11.5566 58.7704 12.0442 58.0108 13.0142L58.0159 13.0091Z" fill="#2B79FF"/>
<path d="M70.5951 16.7811L69.5327 21.2103H69.0759L66.2583 11.7103H62.5117L66.4174 24.0998H68.8399L68.7064 24.6592C68.5986 25.0595 68.4601 25.3726 68.2907 25.6035C68.1213 25.8345 67.9006 26.0039 67.6235 26.1014C67.3464 26.204 67.0076 26.2502 66.6073 26.2502H63.9693V29.3963H66.2326C67.3618 29.3963 68.2907 29.2731 69.0195 29.0268C69.7534 28.7804 70.3385 28.3596 70.7799 27.7642C71.2161 27.174 71.56 26.3836 71.8063 25.3982L73.5565 18.6338C73.151 17.6484 72.2837 17.1814 70.5951 16.7811ZM71.8063 11.7103L70.6875 16.3962C73.8182 16.4116 74.3828 15.5596 75.1013 11.7103H71.8063ZM88.2554 15.2106C87.9885 14.4356 87.5934 13.7581 87.075 13.1782C86.5618 12.5982 85.9459 12.1466 85.2274 11.8233C84.5088 11.4999 83.7133 11.3408 82.8357 11.3408C81.8503 11.3408 80.9624 11.5615 80.1772 11.9978C79.3919 12.4391 78.7658 13.0909 78.3039 13.9634C78.1448 14.2611 78.0216 14.5844 77.9087 14.9283V11.7103H75.2399C75.014 15.7136 75.3733 16.6374 78.5913 17.3764C78.6323 16.8324 78.7812 16.35 79.0326 15.9394C79.3303 15.4467 79.7306 15.072 80.2233 14.8205C80.716 14.5639 81.2395 14.4356 81.7938 14.4356C82.4251 14.4356 82.9794 14.5896 83.4464 14.8873C83.9186 15.1901 84.283 15.6058 84.5448 16.1395C84.8065 16.6682 84.9399 17.2994 84.9399 18.0231C84.9399 18.7468 84.8065 19.3832 84.5448 19.9426C84.283 20.4969 83.9186 20.928 83.4464 21.2359C82.9794 21.5439 82.4251 21.6978 81.7938 21.6978C81.2703 21.6978 80.7622 21.5747 80.2695 21.3283C79.7768 21.082 79.3714 20.7227 79.0532 20.2505C78.7401 19.7835 78.581 19.2138 78.581 18.5517V17.7306C76.6051 17.6946 75.5991 17.9615 74.9525 19.0188V29.0011H78.6734V22.7859C79.0994 23.4018 79.6229 23.8791 80.2593 24.2075C81.0189 24.5976 81.8811 24.7978 82.8357 24.7978C83.7903 24.7978 84.5807 24.6335 85.2992 24.3102C86.0126 23.9869 86.6233 23.5301 87.1212 22.9347C87.6241 22.3394 88.0039 21.6465 88.2657 20.851C88.5274 20.0606 88.6609 19.2087 88.6609 18.3002V17.7665C88.6609 16.8427 88.5274 15.9907 88.2554 15.2106Z" fill="#2B79FF"/>
<path d="M94.604 8.29199H91.1602V11.7152H89.2202V14.4456H91.15L91.1397 19.4394C91.1397 20.7173 91.3245 21.7335 91.694 22.4777C92.0635 23.227 92.6435 23.7608 93.4287 24.0841C94.214 24.4075 95.2456 24.5717 96.5286 24.5717H98.3096V21.4256H96.4363C95.8512 21.4256 95.3995 21.2665 95.0813 20.9534C94.7631 20.6352 94.6091 20.1784 94.6091 19.578V14.4456H98.3096V11.7152H94.6091V8.29199H94.604Z" fill="#2B79FF"/>
<path d="M113.157 15.2106C112.885 14.4356 112.495 13.7581 111.977 13.1782C111.458 12.5982 110.843 12.1466 110.124 11.8233C109.411 11.4999 108.61 11.3408 107.732 11.3408C106.747 11.3408 105.859 11.5615 105.074 11.9978C104.289 12.4391 103.662 13.0909 103.201 13.9634C103.047 14.2611 102.918 14.5844 102.81 14.9283V11.7103H99.8491V29.0011H103.57V22.7859C103.996 23.4018 104.525 23.8791 105.156 24.2075C105.921 24.5976 106.778 24.7978 107.732 24.7978C108.687 24.7978 109.477 24.6335 110.196 24.3102C110.914 23.9869 111.52 23.5301 112.023 22.9347C112.521 22.3394 112.906 21.6465 113.167 20.851C113.429 20.0606 113.563 19.2087 113.563 18.3002V17.7665C113.563 16.8427 113.424 15.9907 113.157 15.2106ZM109.447 19.9426C109.185 20.4969 108.815 20.928 108.348 21.2359C107.876 21.5439 107.327 21.6978 106.696 21.6978C106.167 21.6978 105.659 21.5747 105.166 21.3283C104.674 21.082 104.268 20.7227 103.955 20.2505C103.637 19.7835 103.478 19.2138 103.478 18.5517V17.6998C103.478 17.0223 103.632 16.4321 103.929 15.9394C104.232 15.4467 104.627 15.072 105.12 14.8205C105.613 14.5639 106.136 14.4356 106.696 14.4356C107.327 14.4356 107.876 14.5896 108.348 14.8873C108.815 15.1901 109.185 15.6058 109.447 16.1395C109.708 16.6682 109.837 17.2994 109.837 18.0231C109.837 18.7468 109.708 19.3832 109.447 19.9426Z" fill="#2B79FF"/>
<path d="M125.095 13.7326C124.633 12.9832 123.961 12.4238 123.073 12.0543C122.185 11.6848 121.097 11.5 119.804 11.5C119.357 11.5 118.88 11.5103 118.367 11.5257C117.859 11.5411 117.366 11.5616 116.889 11.5924C116.411 11.6232 115.985 11.654 115.616 11.6848V14.8103C116.093 14.7744 116.632 14.7488 117.222 14.7282C117.817 14.7026 118.392 14.6872 118.947 14.6666C119.501 14.6564 119.947 14.6461 120.286 14.6461C120.969 14.6461 121.461 14.8052 121.769 15.1183C122.077 15.4365 122.231 15.9241 122.231 16.5861V16.6118H119.942C118.818 16.6118 117.823 16.7555 116.96 17.0378C116.093 17.3252 115.426 17.7614 114.949 18.3568C114.471 18.9521 114.23 19.7117 114.23 20.6355C114.23 21.4824 114.425 22.2111 114.81 22.8168C115.195 23.4275 115.729 23.8945 116.416 24.2179C117.099 24.5412 117.9 24.7055 118.808 24.7055C119.716 24.7055 120.43 24.5412 121.041 24.2179C121.646 23.8945 122.123 23.4326 122.472 22.8322C122.626 22.5601 122.755 22.2573 122.852 21.934V24.377H125.788V16.6118C125.788 15.4416 125.557 14.4819 125.095 13.7326ZM122.231 19.686C122.2 20.3173 122.077 20.81 121.862 21.1642C121.646 21.5183 121.369 21.7698 121.041 21.9186C120.707 22.0623 120.332 22.1393 119.917 22.1393C119.27 22.1393 118.772 21.9802 118.428 21.662C118.079 21.3489 117.905 20.9332 117.905 20.4251C117.905 19.8862 118.079 19.4602 118.428 19.142C118.772 18.8289 119.27 18.6698 119.917 18.6698H122.231V19.686Z" fill="#2B79FF"/>
<path d="M135.94 11.71L133.666 21.2099H133.209L130.392 11.71H126.645L130.551 24.1045H132.973L132.84 24.6588C132.732 25.0591 132.593 25.3773 132.424 25.6083C132.255 25.8392 132.029 26.0035 131.752 26.1061C131.475 26.2036 131.136 26.2549 130.735 26.2549H128.103V29.4011H130.366C131.49 29.4011 132.419 29.2779 133.153 29.0315C133.887 28.7852 134.472 28.3643 134.908 27.769C135.349 27.1736 135.688 26.3833 135.935 25.3979L139.471 11.71H135.935H135.94Z" fill="#2B79FF"/>
</svg>
