<svg width="146" height="40" viewBox="0 0 146 40" fill="none" xmlns="http://www.w3.org/2000/svg">
<g clip-path="url(#clip0_19447_66371)">
<path d="M52.1906 24.2385C52.0874 24.9341 51.8695 25.5434 51.5348 26.071C51.2001 26.5986 50.744 27.0105 50.1653 27.3067C49.5866 27.6028 48.8854 27.7492 48.0627 27.7492C46.9564 27.7492 46.0623 27.4984 45.3815 26.998C44.6985 26.4965 44.2049 25.7885 43.8963 24.8751C43.5865 23.9628 43.4333 22.9405 43.4333 21.8092C43.4333 20.5997 43.6001 19.5399 43.9348 18.6265C44.2684 17.7131 44.7768 17.0005 45.4587 16.4843C46.1406 15.9702 46.995 15.7127 48.0242 15.7127C49.2326 15.7127 50.1721 16.0417 50.8404 16.6976C51.5087 17.3534 51.8934 18.1704 51.9978 19.1473H58.0546C57.9513 17.4249 57.4623 15.9067 56.5886 14.5962C55.7138 13.2845 54.5439 12.261 53.0768 11.5292C51.6108 10.7962 49.927 10.4297 48.0242 10.4297C46.2745 10.4297 44.7246 10.7258 43.3754 11.317C42.0252 11.9093 40.8928 12.7194 39.9805 13.7486C39.0671 14.7766 38.3795 15.9532 37.9166 17.2785C37.4536 18.6004 37.2222 19.9824 37.2222 21.4223V22.1553C37.2222 23.5441 37.4468 24.8887 37.8984 26.1868C38.3466 27.4859 39.0229 28.649 39.9238 29.6781C40.8236 30.7061 41.9424 31.5299 43.279 32.1471C44.6156 32.7644 46.2121 33.073 48.0627 33.073C49.9134 33.073 51.6642 32.6997 53.1551 31.9543C54.6461 31.2088 55.842 30.1728 56.7429 28.8487C57.6427 27.5245 58.1317 25.9882 58.2089 24.2385H52.1906Z" fill="#3A66FF"/>
<path d="M80.2 21.2703C80.2 19.3413 79.787 17.561 78.9643 15.9271C78.1417 14.2944 76.9514 12.9702 75.3958 11.9535C73.8391 10.9392 71.9294 10.4297 69.6669 10.4297C67.9433 10.4297 66.407 10.7326 65.0568 11.3363C63.7065 11.9411 62.5753 12.758 61.6618 13.7872C60.7484 14.8152 60.0552 15.9793 59.5786 17.2785C59.102 18.5777 58.8638 19.9348 58.8638 21.3486V22.1201C58.8638 23.4829 59.102 24.8149 59.5786 26.113C60.0552 27.4111 60.7553 28.5877 61.6811 29.6429C62.607 30.697 63.7587 31.5322 65.1339 32.1505C66.5091 32.7678 68.0988 33.0764 69.8995 33.0764C71.7002 33.0764 73.2422 32.761 74.6061 32.1313C75.9688 31.5004 77.1001 30.6324 78.001 29.5261C78.9008 28.4209 79.5056 27.1603 79.8142 25.7454H74.1443C73.8867 26.3887 73.3977 26.9288 72.6772 27.3657C71.9567 27.8025 71.0319 28.0215 69.9006 28.0215C68.665 28.0215 67.6631 27.7651 66.8904 27.2511C66.1199 26.7371 65.5537 26.0097 65.1929 25.0714C64.9921 24.5494 64.848 23.9776 64.7595 23.3546H80.2011V21.2714L80.2 21.2703ZM64.8049 19.8429C64.9013 19.2846 65.042 18.7774 65.2315 18.319C65.6173 17.3795 66.1823 16.6726 66.9278 16.196C67.6733 15.7195 68.5867 15.4823 69.668 15.4823C70.7494 15.4823 71.6026 15.7195 72.3107 16.196C73.0187 16.6726 73.5452 17.3534 73.8935 18.2407C74.0796 18.7161 74.2158 19.2506 74.3031 19.8417H64.8071L64.8049 19.8429Z" fill="#3A66FF"/>
<path d="M130.224 21.2703C130.224 19.3413 129.811 17.561 128.988 15.9271C128.166 14.2944 126.975 12.9702 125.42 11.9535C123.863 10.9392 121.953 10.4297 119.691 10.4297C117.967 10.4297 116.431 10.7326 115.081 11.3363C113.73 11.9411 112.599 12.758 111.686 13.7872C110.772 14.8152 110.079 15.9793 109.603 17.2785C109.126 18.5766 108.888 19.9348 108.888 21.3486V22.1201C108.888 23.4829 109.125 24.8149 109.603 26.113C110.078 27.4111 110.779 28.5877 111.705 29.6429C112.631 30.697 113.781 31.5322 115.158 32.1505C116.533 32.7678 118.123 33.0764 119.923 33.0764C121.724 33.0764 123.266 32.761 124.63 32.1313C125.993 31.5004 127.124 30.6324 128.025 29.5261C128.925 28.4209 129.529 27.1603 129.838 25.7454H124.167C123.911 26.3887 123.422 26.9288 122.701 27.3657C121.981 27.8025 121.056 28.0215 119.925 28.0215C118.689 28.0215 117.687 27.7651 116.914 27.2511C116.144 26.7371 115.578 26.0097 115.217 25.0714C115.016 24.5494 114.872 23.9776 114.783 23.3546H130.225V21.2714L130.224 21.2703ZM114.829 19.8429C114.925 19.2846 115.066 18.7774 115.254 18.319C115.64 17.3795 116.205 16.6726 116.951 16.196C117.696 15.7206 118.609 15.4823 119.69 15.4823C120.77 15.4823 121.624 15.7195 122.332 16.196C123.04 16.6715 123.567 17.3534 123.915 18.2407C124.101 18.7161 124.237 19.2506 124.324 19.8417H114.829V19.8429Z" fill="#3A66FF"/>
<path d="M144.31 10.8906C141.892 10.8906 140.049 11.6996 138.774 13.3211C137.815 14.5431 137.217 16.1589 136.981 18.1684V11.1607H132.042V32.3017H138.254V21.5394C138.254 19.8159 138.717 18.5054 139.642 17.6044C140.568 16.7046 141.88 16.2542 143.577 16.2542H145.121V10.8906H144.31Z" fill="#3A66FF"/>
<path d="M95.006 27.4066L94.239 32.8712C93.3108 33.0879 92.3282 33.1957 91.29 33.1957C89.4893 33.1957 87.9439 32.887 86.6549 32.2698C86.5448 32.2176 86.4382 32.1631 86.3326 32.1075C85.1912 31.5096 84.2664 30.7278 83.555 29.7622C82.7777 28.7081 82.2422 27.5314 81.9483 26.2322C81.9483 26.2322 81.6828 25.0647 81.6816 23.7507C81.6816 22.4981 82.4498 16.4855 83.6866 7.83594H89.6617C88.3489 16.5456 87.532 22.5763 87.5183 23.669C87.5081 24.4395 87.7067 25.1906 87.7067 25.1906C87.9711 26.1925 88.4181 26.7224 88.5634 26.8858C88.7222 27.0639 88.9015 27.2262 89.0978 27.3703C89.7979 27.8843 90.7635 28.1407 91.9991 28.1407C93.1304 28.1407 94.0869 27.9229 94.8687 27.4849C94.9152 27.4588 94.9606 27.4316 95.006 27.4055V27.4066Z" fill="#3A66FF"/>
<path d="M109.009 27.4066L108.242 32.8712C107.314 33.0879 106.33 33.1957 105.292 33.1957C103.491 33.1957 101.947 32.887 100.657 32.2698C100.548 32.2176 100.441 32.1631 100.336 32.1075C99.1941 31.5096 98.2682 30.7278 97.5568 29.7622C96.7795 28.7081 96.2451 27.5314 95.9512 26.2322C95.9512 26.2322 95.6846 25.0647 95.6846 23.7507C95.6846 22.4368 96.4527 16.4855 97.6895 7.83594H103.664C102.352 16.5456 101.534 22.5763 101.521 23.669C101.511 24.4395 101.71 25.1906 101.71 25.1906C101.973 26.1925 102.42 26.7224 102.566 26.8858C102.725 27.0639 102.904 27.2262 103.101 27.3703C103.801 27.8843 104.766 28.1407 106.002 28.1407C107.133 28.1407 108.09 27.9229 108.87 27.4849C108.917 27.4588 108.964 27.4316 109.008 27.4055L109.009 27.4066Z" fill="#3A66FF"/>
</g>
<g clip-path="url(#clip1_19447_66371)">
<path d="M25.7842 36.8267V36.8278C25.0935 37.8285 24.2336 38.6139 23.2285 39.1616C22.2075 39.7194 21.093 40.0011 19.9154 40.0011C19.6348 40.0011 19.3497 39.9842 19.0669 39.9515H19.0624H19.0579C17.0497 39.6777 15.0597 38.7165 13.1428 37.096C11.6621 35.844 10.2354 34.2112 8.89783 32.238L8.25889 33.0246C7.96928 33.3807 7.54106 33.5858 7.0858 33.5858C6.37698 33.5858 5.76734 33.1057 5.60281 32.4194L4.76779 28.9249C4.71257 28.6939 4.54692 28.5046 4.32605 28.419L0.972431 27.1253C0.429271 26.9157 0.0585252 26.4244 0.00668837 25.844C-0.0451485 25.2648 0.230939 24.716 0.72677 24.4118L3.79303 22.5378C3.99474 22.4138 4.12434 22.1986 4.13673 21.9619L4.33056 18.3739C4.35309 17.9671 4.53001 17.5952 4.82864 17.327C5.11149 17.0746 5.47547 16.9349 5.85411 16.9349C6.23274 16.9349 6.55503 17.0611 6.83563 17.3011L9.56495 19.6383C9.69567 19.7498 9.86245 19.8118 10.0337 19.8118C10.0957 19.8118 10.1577 19.8039 10.2185 19.787L13.6916 18.863C13.8235 18.828 13.9564 18.81 14.0894 18.81C14.5931 18.81 15.063 19.0647 15.3481 19.4895C15.6332 19.9177 15.6839 20.4361 15.4856 20.9128L14.1074 24.2315C14.0162 24.4512 14.0387 24.7002 14.1683 24.8997L16.1189 27.9175C16.4266 28.3919 16.4491 28.9723 16.1787 29.4681C15.9116 29.9583 15.4022 30.2626 14.8489 30.2626C14.8072 30.2626 14.7644 30.2603 14.7227 30.2569L13.8573 30.1882C14.2584 30.7573 14.6754 31.2948 15.1025 31.794C15.5149 32.2752 16.3556 33.1913 17.3551 33.9272C18.3581 34.6653 19.2584 35.0394 20.0326 35.0394C20.2636 35.0394 20.4867 35.0045 20.6952 34.9369C21.2485 34.7453 21.7466 34.2664 22.1759 33.5148C23.3626 31.3252 23.7299 28.1204 23.2657 23.9892C22.8949 20.9579 22.0745 17.8183 20.8924 14.9098C20.2738 13.3874 19.5638 11.9484 18.7806 10.6322C17.9591 9.25062 17.0565 8.00203 16.0975 6.92134C15.365 6.09195 14.5244 5.34032 13.7277 4.80392C12.7214 4.12666 11.7973 3.78183 10.9803 3.78183C10.1633 3.78183 9.48607 4.11877 8.89332 4.81181C8.16197 5.72121 7.63572 6.94388 7.3292 8.44828C7.09143 9.61573 6.97874 10.9748 6.98325 12.6042C6.98776 13.0516 6.82098 13.4753 6.51221 13.801C6.20232 14.1267 5.78537 14.3149 5.33687 14.3318C5.31546 14.3318 5.29292 14.3318 5.27038 14.3318C4.82639 14.3318 4.40606 14.1627 4.08602 13.854C3.76486 13.5452 3.57892 13.1305 3.56202 12.6842C3.49102 10.8102 3.59921 9.14357 3.89107 7.58959C4.06799 6.60581 4.33957 5.67275 4.69679 4.81857C5.08444 3.89227 5.56675 3.0764 6.1302 2.39464C6.74998 1.64526 7.46443 1.06153 8.25551 0.660356C9.1187 0.221997 10.0732 0 11.0953 0C11.3499 0 11.6114 0.0146495 11.8739 0.0416948H11.8785H11.883C13.2409 0.211855 14.5379 0.699797 15.8451 1.53144C16.8739 2.18616 17.9129 3.06175 19.0184 4.20893L19.0207 4.21118L19.0229 4.21343C20.196 5.46315 21.3004 6.90782 22.3078 8.508C23.2668 10.0316 24.1367 11.6948 24.8963 13.455C26.3544 16.838 27.3675 20.4902 27.825 24.0174V24.0207C28.4955 29.5504 27.8081 33.8573 25.782 36.8244L25.7842 36.8267Z" fill="#3A66FF"/>
</g>
<defs>
<clipPath id="clip0_19447_66371">
<rect width="107.899" height="25.3597" fill="white" transform="translate(37.2222 7.83594)"/>
</clipPath>
<clipPath id="clip1_19447_66371">
<rect width="28.0764" height="40" fill="white"/>
</clipPath>
</defs>
</svg>
