<svg width="51" height="50" viewBox="0 0 51 50" fill="none" xmlns="http://www.w3.org/2000/svg">
<circle cx="25.5" cy="25" r="25" fill="#3A66FF"/>
<path d="M21.5029 35.2071C21.5317 34.493 21.7699 33.803 22.1877 33.2231C22.6056 32.6432 23.1847 32.1989 23.853 31.9455C24.5213 31.6921 25.2494 31.6407 25.9467 31.7978C26.644 31.9549 27.2797 32.3135 27.7749 32.829C28.27 33.3445 28.6026 33.9942 28.7315 34.6972C28.8603 35.4003 28.7796 36.1257 28.4995 36.7833C28.2193 37.4408 27.752 38.0016 27.1558 38.3957C26.5595 38.7898 25.8605 39 25.1458 39C24.6547 38.9996 24.1688 38.9002 23.7171 38.7075C23.2654 38.5149 22.8573 38.233 22.5171 37.8789C22.1769 37.5247 21.9118 37.1055 21.7375 36.6464C21.5632 36.1874 21.4834 35.6978 21.5029 35.2071ZM22.324 16.4544L22.1206 11H28.1708L27.9675 16.4544L27.1266 29.0102H23.1649L22.324 16.4544Z" fill="#E7ECFF"/>
</svg>
