<svg width="20" height="20" viewBox="0 0 20 20" fill="none" xmlns="http://www.w3.org/2000/svg">
<path d="M2.42433 12.3146C2.25421 13.3971 3.01479 14.1484 3.94603 14.5228C7.51624 15.9583 12.4845 15.9583 16.0547 14.5228C16.986 14.1484 17.7466 13.3971 17.5765 12.3147C17.4719 11.6494 16.9549 11.0955 16.5719 10.5546C16.0702 9.83743 16.0204 9.05519 16.0203 8.22294C16.0203 5.0067 13.3251 2.39941 10.0004 2.39941C6.67569 2.39941 3.98049 5.0067 3.98049 8.22294C3.98042 9.05519 3.93057 9.83743 3.42888 10.5546C3.04586 11.0955 2.52888 11.6494 2.42433 12.3146Z" stroke="white" stroke-width="1.2" stroke-linecap="round" stroke-linejoin="round"/>
<path d="M7.60034 17.5996C8.23725 18.0971 9.07832 18.3996 10.0003 18.3996C10.9224 18.3996 11.7634 18.0971 12.4003 17.5996" stroke="white" stroke-width="1.2" stroke-linecap="round" stroke-linejoin="round"/>
</svg>
