<svg width="44" height="52" viewBox="0 0 44 52" fill="none" xmlns="http://www.w3.org/2000/svg">
<path d="M43.9084 52.0006H10.1875V8.02148H36.7319L43.9084 15.6832V52.0006Z" fill="#B7D7FF"/>
<path d="M36.7314 7.82617V15.4879H43.908L36.7314 7.82617Z" fill="#D9E7FF"/>
<path d="M40.8513 19.6309H13.2441V20.6313H40.8513V19.6309Z" fill="#EEF4FF"/>
<path d="M40.8513 22.9238H13.2441V23.9243H40.8513V22.9238Z" fill="#EEF4FF"/>
<path d="M40.8513 26.2168H13.2441V27.2172H40.8513V26.2168Z" fill="#EEF4FF"/>
<path d="M40.8513 29.5098H13.2441V30.5102H40.8513V29.5098Z" fill="#EEF4FF"/>
<path d="M40.8513 32.8047H13.2441V33.8051H40.8513V32.8047Z" fill="#EEF4FF"/>
<path d="M40.8513 36.0977H13.2441V37.0981H40.8513V36.0977Z" fill="#EEF4FF"/>
<path d="M40.8513 39.3906H13.2441V40.3911H40.8513V39.3906Z" fill="#EEF4FF"/>
<path d="M40.8513 42.6836H13.2441V43.684H40.8513V42.6836Z" fill="#EEF4FF"/>
<path d="M40.8513 45.9785H13.2441V46.9789H40.8513V45.9785Z" fill="#EEF4FF"/>
<path d="M30.8213 18.332H29.7725V49.3335H30.8213V18.332Z" fill="#B7D7FF"/>
<path d="M33.0595 18.332H32.0107V49.3335H33.0595V18.332Z" fill="#B7D7FF"/>
<path d="M35.2988 18.332H34.25V49.3335H35.2988V18.332Z" fill="#B7D7FF"/>
<path d="M37.5371 18.332H36.4883V49.3335H37.5371V18.332Z" fill="#B7D7FF"/>
<path d="M39.7754 18.332H38.7266V49.3335H39.7754V18.332Z" fill="#B7D7FF"/>
<path d="M12.0918 24C18.7192 24 24.0918 18.6274 24.0918 12C24.0918 5.37259 18.7192 0 12.0918 0C5.46438 0 0.0917969 5.37259 0.0917969 12C0.0917969 18.6274 5.46438 24 12.0918 24Z" fill="#8CBBFF"/>
<path d="M16.7359 9.87453H16.0743V8.39669C16.0743 7.34043 15.6547 6.32743 14.9078 5.58055C14.161 4.83366 13.148 4.41406 12.0917 4.41406C11.0354 4.41406 10.0224 4.83366 9.27555 5.58055C8.52866 6.32743 8.10907 7.34043 8.10907 8.39669V9.87453H7.4475C7.14519 9.87453 6.85525 9.99463 6.64148 10.2084C6.42771 10.4222 6.30762 10.7121 6.30762 11.0144V18.4449C6.30762 18.7472 6.42771 19.0371 6.64148 19.2509C6.85525 19.4647 7.14519 19.5848 7.4475 19.5848H16.7359C16.8856 19.5848 17.0338 19.5553 17.1721 19.498C17.3104 19.4407 17.436 19.3567 17.5418 19.2509C17.6477 19.145 17.7316 19.0194 17.7889 18.8811C17.8462 18.7428 17.8756 18.5946 17.8756 18.4449V11.0144C17.8756 10.8647 17.8462 10.7165 17.7889 10.5782C17.7316 10.4399 17.6477 10.3143 17.5418 10.2084C17.436 10.1026 17.3104 10.0186 17.1721 9.9613C17.0338 9.90402 16.8856 9.87453 16.7359 9.87453ZM9.40459 8.39669C9.40459 7.68388 9.68775 7.00027 10.1918 6.49623C10.6958 5.9922 11.3794 5.70903 12.0922 5.70903C12.805 5.70903 13.4887 5.9922 13.9927 6.49623C14.4967 7.00027 14.7799 7.68388 14.7799 8.39669V9.87453H9.40459V8.39669Z" fill="white"/>
<path d="M12.0918 16.4552C13.0028 16.4552 13.7413 15.7167 13.7413 14.8057C13.7413 13.8947 13.0028 13.1562 12.0918 13.1562C11.1809 13.1562 10.4424 13.8947 10.4424 14.8057C10.4424 15.7167 11.1809 16.4552 12.0918 16.4552Z" fill="#8CBBFF"/>
</svg>
