<svg width="51" height="50" viewBox="0 0 51 50" fill="none" xmlns="http://www.w3.org/2000/svg">
<circle cx="25.5" cy="25" r="25" fill="#3A66FF"/>
<g clip-path="url(#clip0_14988_27140)">
<path d="M26.5004 14.5C26.5004 13.6703 25.8301 13 25.0004 13C24.1707 13 23.5004 13.6703 23.5004 14.5V24.25C23.5004 24.6625 23.1629 25 22.7504 25C22.3379 25 22.0004 24.6625 22.0004 24.25V16C22.0004 15.1703 21.3301 14.5 20.5004 14.5C19.6707 14.5 19.0004 15.1703 19.0004 16V28.75C19.0004 28.8203 19.0004 28.8953 19.0051 28.9656L16.1692 26.2656C15.4192 25.5531 14.2332 25.5812 13.516 26.3312C12.7989 27.0812 12.8317 28.2672 13.5817 28.9844L18.8504 34C20.8707 35.9266 23.5567 37 26.3504 37H27.2504C31.8067 37 35.5004 33.3062 35.5004 28.75V19C35.5004 18.1703 34.8301 17.5 34.0004 17.5C33.1707 17.5 32.5004 18.1703 32.5004 19V24.25C32.5004 24.6625 32.1629 25 31.7504 25C31.3379 25 31.0004 24.6625 31.0004 24.25V16C31.0004 15.1703 30.3301 14.5 29.5004 14.5C28.6707 14.5 28.0004 15.1703 28.0004 16V24.25C28.0004 24.6625 27.6629 25 27.2504 25C26.8379 25 26.5004 24.6625 26.5004 24.25V14.5Z" fill="white"/>
</g>
<defs>
<clipPath id="clip0_14988_27140">
<rect width="24" height="24" fill="white" transform="translate(13 13)"/>
</clipPath>
</defs>
</svg>
