<svg width="95" height="55" viewBox="0 0 95 55" fill="none" xmlns="http://www.w3.org/2000/svg">
<path d="M60.3065 6.73503L55.1967 1.67518C54.1087 0.597829 52.658 0.00390625 51.119 0.00390625H43.889C42.35 0.00390625 40.8993 0.597829 39.8113 1.67518L34.7015 6.73503C33.6135 7.81238 33.0137 9.24884 33.0137 10.7728V17.9321C33.0137 19.456 33.6135 20.8925 34.7015 21.9698L39.8113 27.0297C40.8993 28.107 42.35 28.701 43.889 28.701H51.119C52.658 28.701 54.1087 28.107 55.1967 27.0297L60.3065 21.9698C61.3992 20.8925 61.9943 19.456 61.9943 17.9321V10.7728C61.9943 9.24884 61.3945 7.81238 60.3065 6.73503ZM44.0192 19.4929C47.1995 19.4514 50.3798 19.4146 53.56 19.3732V21.9883C53.56 22.3796 53.2392 22.6973 52.844 22.6973H46.609C45.5535 21.5555 44.5074 20.4183 43.4519 19.2765C42.5824 19.2949 41.7176 19.3087 40.8528 19.3317C40.4902 19.3409 40.1926 19.0509 40.1926 18.6918V12.5315C41.3596 11.5002 42.5174 10.4689 43.6844 9.43761V6.85013C43.6844 6.38973 44.061 6.01219 44.5306 6.01219H50.5704C51.57 7.14019 52.5697 8.26818 53.574 9.39617C50.3658 9.39617 47.1576 9.38696 43.9541 9.38696C43.7774 9.55731 43.6751 9.6586 43.4984 9.83356C43.4752 12.8584 43.4566 15.8833 43.4333 18.9127C43.6658 19.1383 43.7913 19.2627 44.0238 19.4929H44.0192Z" fill="#98A2B3"/>
<path d="M11.0444 46.9524C10.3098 47.4635 9.41245 47.7213 8.35235 47.7213C7.65492 47.7213 7.03188 47.6062 6.48788 47.3806C5.94388 47.1504 5.48358 46.8189 5.11626 46.3861C4.7443 45.9487 4.46532 45.4377 4.27934 44.853C4.08871 44.2636 3.99572 43.6191 3.99572 42.9146C3.99572 42.2102 4.08871 41.5426 4.27934 40.9533C4.46997 40.364 4.73965 39.8576 5.09766 39.4294C5.45568 39.0012 5.89739 38.6743 6.42744 38.4441C6.95748 38.2139 7.56658 38.1034 8.25006 38.1034C8.93355 38.1034 9.54729 38.2185 10.0913 38.4441C10.6353 38.6743 11.0863 39.0012 11.4443 39.4294C11.8023 39.8576 12.0255 40.3778 12.1231 40.9855H15.5778C15.4662 39.7839 15.0942 38.725 14.4572 37.8134C13.8202 36.9018 12.974 36.1881 11.9139 35.6771C10.8538 35.166 9.63098 34.9082 8.25006 34.9082C6.86914 34.9082 5.7765 35.1338 4.80474 35.5804C3.83299 36.0316 3.02861 36.6301 2.38697 37.376C1.74534 38.1218 1.27108 38.9552 0.964212 39.876C0.657341 40.7968 0.503906 41.7268 0.503906 42.666V43.1218C0.503906 43.9782 0.652692 44.8622 0.954913 45.7784C1.25713 46.69 1.72209 47.5325 2.35908 48.3106C2.99607 49.0841 3.80974 49.7148 4.80009 50.1983C5.79045 50.6817 6.97608 50.9257 8.36165 50.9257C9.82626 50.9257 11.0956 50.6495 12.165 50.097C13.2344 49.5445 14.0759 48.8078 14.699 47.887C15.322 46.9662 15.694 45.9533 15.8195 44.8484H12.3835C12.2301 45.7461 11.7884 46.4506 11.0537 46.9616L11.0444 46.9524Z" fill="#98A2B3"/>
<path d="M20.7014 40.2951C20.1807 40.9535 19.8552 41.8237 19.7297 42.9056V39.1349H17.0469V50.5023H20.4178V44.715C20.4178 43.7896 20.6689 43.0852 21.171 42.6018C21.6732 42.1183 22.3846 41.8743 23.3052 41.8743H24.1421V38.9922H23.7004C22.3892 38.9922 21.3849 39.4296 20.6968 40.2997L20.7014 40.2951Z" fill="#98A2B3"/>
<path d="M32.0984 43.683L31.136 47.6563H30.7222L28.1696 39.1342H24.7754L28.3137 50.2484H30.5083L30.3874 50.7503C30.2898 51.1094 30.1642 51.3902 30.0108 51.5974C29.8574 51.8046 29.6574 51.9565 29.4063 52.044C29.1553 52.1361 28.8484 52.1775 28.4857 52.1775H26.0959V54.9998H28.1463C29.1692 54.9998 30.0108 54.8893 30.671 54.6683C31.3359 54.4473 31.866 54.0698 32.2658 53.5357C32.661 53.0062 32.9726 52.2972 33.1957 51.4132L34.7812 45.3451C34.4139 44.4611 33.6281 44.0421 32.0984 43.683ZM33.1957 39.1342L32.1821 43.3377C35.0184 43.3515 35.5298 42.5873 36.1807 39.1342H33.1957ZM48.0975 42.2742C47.8558 41.579 47.4978 40.9712 47.0281 40.451C46.5632 39.9307 46.0052 39.5256 45.3543 39.2355C44.7034 38.9455 43.9827 38.8027 43.1876 38.8027C42.2949 38.8027 41.4905 39.0007 40.7792 39.3921C40.0678 39.788 39.5005 40.3727 39.0821 41.1554C38.9379 41.4224 38.8263 41.7125 38.724 42.021V39.1342H36.3063C36.1017 42.7254 36.4272 43.5541 39.3424 44.2171C39.3796 43.7291 39.5145 43.2963 39.7423 42.928C40.012 42.486 40.3746 42.1499 40.821 41.9243C41.2674 41.6941 41.7416 41.579 42.2438 41.579C42.8157 41.579 43.3178 41.7171 43.7409 41.9841C44.1687 42.2558 44.4988 42.6287 44.7359 43.1075C44.973 43.5817 45.0939 44.148 45.0939 44.7972C45.0939 45.4464 44.973 46.0173 44.7359 46.5191C44.4988 47.0164 44.1687 47.4031 43.7409 47.6793C43.3178 47.9556 42.8157 48.0937 42.2438 48.0937C41.7695 48.0937 41.3092 47.9832 40.8628 47.7622C40.4165 47.5412 40.0492 47.2189 39.7609 46.7954C39.4773 46.3764 39.3331 45.8654 39.3331 45.2714V44.5348C37.5431 44.5026 36.6317 44.742 36.0459 45.6904V54.6453H39.4168V49.0698C39.8027 49.6223 40.277 50.0504 40.8535 50.3451C41.5417 50.695 42.3228 50.8746 43.1876 50.8746C44.0524 50.8746 44.7685 50.7272 45.4194 50.4372C46.0657 50.1471 46.619 49.7374 47.07 49.2033C47.5257 48.6692 47.8697 48.0477 48.1068 47.334C48.344 46.625 48.4649 45.8607 48.4649 45.0458V44.567C48.4649 43.7383 48.344 42.974 48.0975 42.2742Z" fill="#98A2B3"/>
<path d="M53.8442 36.0645H50.7243V39.1354H48.9668V41.5847H50.715L50.7057 46.0645C50.7057 47.2109 50.8731 48.1225 51.2079 48.7901C51.5426 49.4622 52.0681 49.9411 52.7794 50.2311C53.4908 50.5212 54.4254 50.6685 55.5878 50.6685H57.2012V47.8462H55.5041C54.974 47.8462 54.5649 47.7035 54.2766 47.4226C53.9883 47.1372 53.8488 46.7274 53.8488 46.1888V41.5847H57.2012V39.1354H53.8488V36.0645H53.8442Z" fill="#98A2B3"/>
<path d="M70.6559 42.2742C70.4095 41.579 70.0561 40.9712 69.5865 40.451C69.1169 39.9307 68.5589 39.5256 67.908 39.2355C67.2617 38.9455 66.5364 38.8027 65.7413 38.8027C64.8486 38.8027 64.0442 39.0007 63.3329 39.3921C62.6215 39.788 62.0542 40.3727 61.6358 41.1554C61.4963 41.4224 61.38 41.7125 61.2824 42.021V39.1342H58.5996V54.6453H61.9705V49.0698C62.3565 49.6223 62.8354 50.0504 63.4072 50.3451C64.1 50.695 64.8765 50.8746 65.7413 50.8746C66.6061 50.8746 67.3222 50.7272 67.9731 50.4372C68.624 50.1471 69.1727 49.7374 69.6283 49.2033C70.0794 48.6692 70.4281 48.0477 70.6652 47.334C70.9023 46.625 71.0232 45.8607 71.0232 45.0458V44.567C71.0232 43.7383 70.8977 42.974 70.6559 42.2742ZM67.2943 46.5191C67.0571 47.0164 66.7224 47.4031 66.2993 47.6793C65.8715 47.9556 65.374 48.0937 64.8021 48.0937C64.3232 48.0937 63.8629 47.9832 63.4165 47.7622C62.9702 47.5412 62.6029 47.2189 62.3193 46.7954C62.031 46.3764 61.8868 45.8654 61.8868 45.2714V44.5072C61.8868 43.8994 62.0263 43.37 62.296 42.928C62.5703 42.486 62.9283 42.1499 63.3747 41.9243C63.8211 41.6941 64.2953 41.579 64.8021 41.579C65.374 41.579 65.8715 41.7171 66.2993 41.9841C66.7224 42.2558 67.0571 42.6287 67.2943 43.1075C67.5314 43.5817 67.6476 44.148 67.6476 44.7972C67.6476 45.4464 67.5314 46.0173 67.2943 46.5191Z" fill="#98A2B3"/>
<path d="M81.472 40.9481C81.0535 40.2759 80.4445 39.774 79.6401 39.4426C78.8357 39.1111 77.85 38.9453 76.6783 38.9453C76.2738 38.9453 75.8414 38.9545 75.3764 38.9683C74.9161 38.9821 74.4698 39.0006 74.0374 39.0282C73.605 39.0558 73.2191 39.0834 72.8843 39.1111V41.9149C73.3167 41.8827 73.8049 41.8597 74.3396 41.8413C74.8789 41.8182 75.3997 41.8044 75.9018 41.786C76.404 41.7768 76.8085 41.7676 77.1154 41.7676C77.7338 41.7676 78.1801 41.9103 78.4591 42.1912C78.7381 42.4766 78.8776 42.914 78.8776 43.5079V43.531H76.8039C75.7856 43.531 74.8836 43.6599 74.1025 43.9131C73.3167 44.1709 72.7123 44.5623 72.2798 45.0963C71.8474 45.6304 71.6289 46.3118 71.6289 47.1405C71.6289 47.9002 71.8056 48.554 72.1543 49.0972C72.503 49.6451 72.9866 50.0641 73.6096 50.3542C74.228 50.6442 74.9533 50.7915 75.7763 50.7915C76.5993 50.7915 77.2456 50.6442 77.7989 50.3542C78.3475 50.0641 78.7799 49.6497 79.0961 49.1111C79.2356 48.867 79.3518 48.5954 79.4402 48.3054V50.4969H82.0997V43.531C82.0997 42.4812 81.8905 41.6203 81.472 40.9481ZM78.8776 46.2888C78.8497 46.8551 78.7381 47.2971 78.5428 47.6147C78.3475 47.9324 78.0964 48.158 77.7989 48.2915C77.4966 48.4205 77.1572 48.4895 76.7806 48.4895C76.1948 48.4895 75.7438 48.3468 75.4322 48.0613C75.1161 47.7805 74.958 47.4076 74.958 46.9518C74.958 46.4683 75.1161 46.0862 75.4322 45.8007C75.7438 45.5199 76.1948 45.3772 76.7806 45.3772H78.8776V46.2888Z" fill="#98A2B3"/>
<path d="M91.2953 39.1309L89.2356 47.653H88.8218L86.2692 39.1309H82.875L86.4133 50.2496H88.6079L88.487 50.7469C88.3894 51.106 88.2638 51.3914 88.1104 51.5986C87.957 51.8058 87.7524 51.9531 87.5013 52.0452C87.2502 52.1327 86.9434 52.1787 86.5807 52.1787H84.1955V55.001H86.2459C87.2642 55.001 88.1058 54.8905 88.7706 54.6695C89.4355 54.4485 89.9656 54.071 90.3608 53.5369C90.7606 53.0029 91.0675 52.2938 91.2907 51.4099L94.4942 39.1309H91.2907H91.2953Z" fill="#98A2B3"/>
</svg>
