<svg width="127" height="82" viewBox="0 0 127 82" fill="none" xmlns="http://www.w3.org/2000/svg">
<circle cx="65.5" cy="46" r="36" fill="#B7D7FF"/>
<circle cx="65.5" cy="46" r="29" fill="#3A66FF"/>
<path d="M55 47.5L62 54.5L76 39.5" stroke="white" stroke-width="3" stroke-linecap="round" stroke-linejoin="round"/>
<path fill-rule="evenodd" clip-rule="evenodd" d="M8.27273 57.3636C8.27273 58.0163 7.70291 58.5455 7 58.5455C6.29709 58.5455 5.72727 58.0163 5.72727 57.3636V56.1818C5.72727 55.5291 6.29709 55 7 55C7.70291 55 8.27273 55.5291 8.27273 56.1818V57.3636ZM11.4545 62.6818C10.7516 62.6818 10.1818 62.1527 10.1818 61.5C10.1818 60.8473 10.7516 60.3182 11.4545 60.3182H12.7273C13.4302 60.3182 14 60.8473 14 61.5C14 62.1527 13.4302 62.6818 12.7273 62.6818H11.4545ZM7 68C7.70291 68 8.27273 67.4709 8.27273 66.8182V65.6364C8.27273 64.9837 7.70291 64.4545 7 64.4545C6.29709 64.4545 5.72727 64.9837 5.72727 65.6364V66.8182C5.72727 67.4709 6.29709 68 7 68ZM1.27273 62.6818C0.569818 62.6818 0 62.1527 0 61.5C0 60.8473 0.569818 60.3182 1.27273 60.3182H2.54545C3.24836 60.3182 3.81818 60.8473 3.81818 61.5C3.81818 62.1527 3.24836 62.6818 2.54545 62.6818H1.27273Z" fill="#3A66FF"/>
<path fill-rule="evenodd" clip-rule="evenodd" d="M18.6818 5.54545C18.6818 6.24836 18.1527 6.81818 17.5 6.81818C16.8473 6.81818 16.3182 6.24836 16.3182 5.54545V4.27273C16.3182 3.56982 16.8473 3 17.5 3C18.1527 3 18.6818 3.56982 18.6818 4.27273V5.54545ZM21.6364 11.2727C20.9837 11.2727 20.4545 10.7029 20.4545 10C20.4545 9.29709 20.9837 8.72727 21.6364 8.72727H22.8182C23.4709 8.72727 24 9.29709 24 10C24 10.7029 23.4709 11.2727 22.8182 11.2727H21.6364ZM17.5 17C18.1527 17 18.6818 16.4302 18.6818 15.7273V14.4545C18.6818 13.7516 18.1527 13.1818 17.5 13.1818C16.8473 13.1818 16.3182 13.7516 16.3182 14.4545V15.7273C16.3182 16.4302 16.8473 17 17.5 17ZM12.1818 11.2727C11.5291 11.2727 11 10.7029 11 10C11 9.29709 11.5291 8.72727 12.1818 8.72727H13.3636C14.0163 8.72727 14.5455 9.29709 14.5455 10C14.5455 10.7029 14.0163 11.2727 13.3636 11.2727H12.1818Z" fill="#3A66FF"/>
<path fill-rule="evenodd" clip-rule="evenodd" d="M109.682 2.54545C109.682 3.24836 109.153 3.81818 108.5 3.81818C107.847 3.81818 107.318 3.24836 107.318 2.54545V1.27273C107.318 0.569819 107.847 0 108.5 0C109.153 0 109.682 0.569819 109.682 1.27273V2.54545ZM112.636 8.27273C111.984 8.27273 111.455 7.70291 111.455 7C111.455 6.29709 111.984 5.72727 112.636 5.72727H113.818C114.471 5.72727 115 6.29709 115 7C115 7.70291 114.471 8.27273 113.818 8.27273H112.636ZM108.5 14C109.153 14 109.682 13.4302 109.682 12.7273V11.4545C109.682 10.7516 109.153 10.1818 108.5 10.1818C107.847 10.1818 107.318 10.7516 107.318 11.4545V12.7273C107.318 13.4302 107.847 14 108.5 14ZM103.182 8.27273C102.529 8.27273 102 7.70291 102 7C102 6.29709 102.529 5.72727 103.182 5.72727H104.364C105.016 5.72727 105.545 6.29709 105.545 7C105.545 7.70291 105.016 8.27273 104.364 8.27273H103.182Z" fill="#3A66FF"/>
<path fill-rule="evenodd" clip-rule="evenodd" d="M121.273 44.3636C121.273 45.0163 120.703 45.5455 120 45.5455C119.297 45.5455 118.727 45.0163 118.727 44.3636V43.1818C118.727 42.5291 119.297 42 120 42C120.703 42 121.273 42.5291 121.273 43.1818V44.3636ZM124.455 49.6818C123.752 49.6818 123.182 49.1527 123.182 48.5C123.182 47.8473 123.752 47.3182 124.455 47.3182H125.727C126.43 47.3182 127 47.8473 127 48.5C127 49.1527 126.43 49.6818 125.727 49.6818H124.455ZM120 55C120.703 55 121.273 54.4709 121.273 53.8182V52.6364C121.273 51.9837 120.703 51.4545 120 51.4545C119.297 51.4545 118.727 51.9837 118.727 52.6364V53.8182C118.727 54.4709 119.297 55 120 55ZM114.273 49.6818C113.57 49.6818 113 49.1527 113 48.5C113 47.8473 113.57 47.3182 114.273 47.3182H115.545C116.248 47.3182 116.818 47.8473 116.818 48.5C116.818 49.1527 116.248 49.6818 115.545 49.6818H114.273Z" fill="#3A66FF"/>
</svg>
