<svg width="57" height="56" viewBox="0 0 57 56" fill="none" xmlns="http://www.w3.org/2000/svg">
<path d="M28.5 56C43.964 56 56.5 43.464 56.5 28C56.5 12.536 43.964 0 28.5 0C13.036 0 0.5 12.536 0.5 28C0.5 43.464 13.036 56 28.5 56Z" fill="#3A66FF"/>
<path d="M42.8239 14.7156C37.6565 14.7241 32.6274 13.0465 28.4999 9.9375C24.3724 13.0466 19.3432 14.7242 14.1757 14.7156C13.751 14.7156 13.3272 14.7052 12.9082 14.6818V23.6655C12.9134 31.741 16.1277 39.1815 23.1828 43.1086L28.4996 46.0598L33.8165 43.1087C40.8718 39.1816 44.0858 31.7411 44.091 23.6656V14.6815C43.6721 14.7049 43.2478 14.7156 42.8239 14.7156Z" fill="white"/>
<path d="M32.2487 21.5937V25.071C32.2487 25.2101 32.1935 25.3435 32.0951 25.4418C31.9968 25.5402 31.8634 25.5954 31.7243 25.5954C31.5853 25.5954 31.4519 25.5402 31.3535 25.4418C31.2552 25.3435 31.1999 25.2101 31.1999 25.071V21.5937C31.1999 20.2437 29.9882 19.1445 28.4989 19.1445C27.0096 19.1445 25.7978 20.2437 25.7978 21.5937V25.3278C25.7978 25.4669 25.7426 25.6003 25.6442 25.6986C25.5459 25.7969 25.4125 25.8522 25.2734 25.8522C25.1343 25.8522 25.001 25.7969 24.9026 25.6986C24.8043 25.6003 24.749 25.4669 24.749 25.3278V21.5937C24.749 19.665 26.4309 18.0957 28.4989 18.0957C30.5669 18.0957 32.2487 19.665 32.2487 21.5937Z" fill="#292A2E"/>
<path d="M32.2487 25.071C32.2487 25.2101 32.1935 25.3435 32.0951 25.4418C31.9968 25.5402 31.8634 25.5954 31.7243 25.5954C31.5853 25.5954 31.4519 25.5402 31.3535 25.4418C31.2552 25.3435 31.1999 25.2101 31.1999 25.071V21.5937C31.1999 20.2437 29.9882 19.1445 28.4989 19.1445C27.0096 19.1445 25.7978 20.2437 25.7978 21.5937V25.3278C25.7978 25.4669 25.7426 25.6003 25.6442 25.6986C25.5459 25.7969 25.4125 25.8522 25.2734 25.8522C25.1343 25.8522 25.001 25.7969 24.9026 25.6986C24.8043 25.6003 24.749 25.4669 24.749 25.3278V21.5937C24.749 19.665 26.4309 18.0957 28.4989 18.0957C30.5669 18.0957 32.2487 19.665 32.2487 21.5937V25.071Z" fill="#292A2E"/>
<path d="M33.4195 24.6816H23.5791C23.0052 24.6816 22.54 25.1468 22.54 25.7207V34.9897C22.54 35.5635 23.0052 36.0287 23.5791 36.0287H33.4195C33.9933 36.0287 34.4585 35.5635 34.4585 34.9897V25.7207C34.4585 25.1468 33.9933 24.6816 33.4195 24.6816Z" fill="#367CFF"/>
<path d="M27.5195 29.4367C27.5196 29.6207 27.5713 29.8009 27.6689 29.9568C27.7665 30.1127 27.906 30.238 28.0714 30.3185V31.8237C28.0731 31.9361 28.1189 32.0432 28.199 32.122C28.279 32.2009 28.3868 32.2451 28.4992 32.2451C28.6115 32.2451 28.7193 32.2009 28.7994 32.122C28.8794 32.0432 28.9252 31.9361 28.9269 31.8237V30.3184C29.0844 30.242 29.2185 30.1249 29.3153 29.9791C29.4122 29.8334 29.4682 29.6644 29.4777 29.4897C29.4871 29.315 29.4496 29.1409 29.369 28.9856C29.2884 28.8303 29.1678 28.6994 29.0195 28.6065C28.8712 28.5136 28.7008 28.4621 28.5259 28.4574C28.351 28.4527 28.178 28.4948 28.0249 28.5796C27.8718 28.6643 27.7442 28.7885 27.6553 28.9392C27.5664 29.0899 27.5196 29.2618 27.5195 29.4367Z" fill="#262626"/>
</svg>
